<?xml version="1.0" encoding="UTF-8"?>
<svg width="188.49mm" height="76.073mm" version="1.1" viewBox="0 0 188.49 76.073" xmlns="http://www.w3.org/2000/svg" xmlns:cc="http://creativecommons.org/ns#" xmlns:dc="http://purl.org/dc/elements/1.1/" xmlns:rdf="http://www.w3.org/1999/02/22-rdf-syntax-ns#">
 <metadata>
  <rdf:RDF>
   <cc:Work rdf:about="">
    <dc:format>image/svg+xml</dc:format>
    <dc:type rdf:resource="http://purl.org/dc/dcmitype/StillImage"/>
    <dc:title/>
   </cc:Work>
  </rdf:RDF>
 </metadata>
 <g transform="translate(-12.384 -100.29)">
  <g>
   <circle cx="138.38" cy="131.25" r="30.956" fill="#d0a743" stroke-width=".265"/>
  </g>
  <g fill="#b8892f" stroke-width=".15803">
   <circle cx="138.38" cy="114.71" r="8.599"/>
   <circle transform="rotate(90)" cx="131.25" cy="-154.92" r="8.599"/>
   <circle transform="rotate(-90)" cx="-131.25" cy="121.85" r="8.599"/>
  </g>
  <g>
   <path d="m14.359 119.91h58.944c1.0936 0 1.4242 0.94892 1.9741 1.8657l5.5229 9.2082-68.413-3e-3s-0.0022-3.999-0.0022-9.2053c0-1.0336 0.88042-1.8657 1.9741-1.8657z" fill="#d0a743" stroke-width=".051997"/>
   <path d="m197.01 130.45c2.1426 0 3.8675 1.7249 3.8675 3.8675v38.176c0 2.1426-1.7249 3.8675-3.8675 3.8675h-180.76c-2.1426 0-3.8675-1.7249-3.8675-3.8675-0.0062-14.015 0.01363-28.031 0.0016-42.046 61.182 6e-3 123.17 2e-3 184.62 2e-3z" fill="#e6d05e" stroke-width=".17903"/>
  </g>
  <g fill="#d0a743" stroke-width=".094488">
   <rect x="191.01" y="166.82" width="9.8728" height="4.9364" ry="0"/>
   <rect x="191.01" y="135.06" width="9.8728" height="4.9364" ry="0"/>
   <rect x="191.01" y="150.93" width="9.8728" height="4.9364" ry="0"/>
   <rect x="191.01" y="143" width="9.8728" height="4.9364" ry="0"/>
   <rect x="191.01" y="158.87" width="9.8728" height="4.9364" ry="0"/>
   <rect x="12.385" y="166.82" width="9.8728" height="4.9364" ry="0"/>
   <rect x="12.385" y="150.93" width="9.8728" height="4.9364" ry="0"/>
   <rect x="12.385" y="143" width="9.8728" height="4.9364" ry="0"/>
   <rect x="12.385" y="158.87" width="9.8728" height="4.9364" ry="0"/>
   <rect x="12.385" y="135.06" width="9.8728" height="4.9364" ry="0"/>
  </g>
 </g>
 <g transform="translate(-12.384 -100.29)" style="mix-blend-mode:normal">
  <text x="31.017147" y="161.092" font-family="Broadway" font-size="22.624px" stroke-width=".2121" style="line-height:1.25" xml:space="preserve"><tspan x="31.017147" y="161.092" font-size="22.624px" stroke-width=".2121">CINEMAFILE</tspan></text>
 </g>
 <g transform="translate(-12.384 -100.29)" display="none">
  <g>
   <rect x="-4.7378" y="142.96" width="30.309" height="21.548" ry="1.8152" fill="#e6d05e" stroke-width=".049182"/>
   <path d="m-3.8113 138.85h11.025c0.5133 0 0.66843 0.35398 0.92652 0.69598l2.5922 3.435-2.5922 3.435c-0.25809 0.342-0.41323 0.69598-0.92652 0.69598h-11.951s-5.7e-5 -5.6239-5.7e-5 -7.566c0-0.38557 0.41323-0.69598 0.92652-0.69598z" fill="#d0a743" stroke-width=".021758"/>
  </g>
  <g display="inline">
   <text x="3.484256" y="157.07198" font-family="Broadway" font-size="10.026px" stroke-width=".093998" style="line-height:1.25" xml:space="preserve"><tspan x="3.484256" y="157.07198" font-size="10.026px" stroke-width=".093998">CF</tspan></text>
  </g>
  <g fill="#d0a743" stroke-width=".044348">
   <rect x="20.937" y="148.06" width="4.6338" height="2.3169" ry="0"/>
   <rect x="20.937" y="151.07" width="4.6338" height="2.3169" ry="0"/>
   <rect x="20.937" y="154.08" width="4.6338" height="2.3169" ry="0"/>
   <rect x="20.937" y="157.08" width="4.6338" height="2.3169" ry="0"/>
   <rect x="20.937" y="160.09" width="4.6338" height="2.3169" ry="0"/>
   <rect x="20.937" y="145.05" width="4.6338" height="2.3169" ry="0"/>
   <rect x="-4.7378" y="148.06" width="4.6338" height="2.3169" ry="0"/>
   <rect x="-4.7378" y="151.07" width="4.6338" height="2.3169" ry="0"/>
   <rect x="-4.7378" y="154.08" width="4.6338" height="2.3169" ry="0"/>
   <rect x="-4.7378" y="157.08" width="4.6338" height="2.3169" ry="0"/>
   <rect x="-4.7378" y="160.09" width="4.6338" height="2.3169" ry="0"/>
  </g>
 </g>
</svg>
